<?xml version="1.0" standalone="no"?><!DOCTYPE svg PUBLIC "-//W3C//DTD SVG 1.1//EN" "http://www.w3.org/Graphics/SVG/1.1/DTD/svg11.dtd"><svg t="1609688896358" class="icon" viewBox="0 0 1024 1024" version="1.1" xmlns="http://www.w3.org/2000/svg" p-id="12276" xmlns:xlink="http://www.w3.org/1999/xlink" width="128" height="128"><defs><style type="text/css"></style></defs><path d="M480 437.344h64v309.312h-64v-245.312h-64v-64h64zM512 288a53.344 53.344 0 1 1 0 106.656A53.344 53.344 0 0 1 512 288z m0-224c246.4 0 448 201.6 448 448s-201.6 448-448 448S64 758.4 64 512 265.6 64 512 64z m0 69.824C304.16 133.824 133.824 304.16 133.824 512c0 207.84 170.336 378.176 378.176 378.176 207.84 0 378.176-170.336 378.176-378.176 0-207.84-170.336-378.176-378.176-378.176z" p-id="12277"></path></svg>