<?xml version="1.0" standalone="no"?><!DOCTYPE svg PUBLIC "-//W3C//DTD SVG 1.1//EN" "http://www.w3.org/Graphics/SVG/1.1/DTD/svg11.dtd"><svg t="1609688075987" class="icon" viewBox="0 0 1024 1024" version="1.1" xmlns="http://www.w3.org/2000/svg" p-id="5088" xmlns:xlink="http://www.w3.org/1999/xlink" width="128" height="128"><defs><style type="text/css"></style></defs><path d="M860.512 896C880 896 896 881.6 896 864l-27.84-319.04-29.088 327.36c-0.64 8.32-2.56 16.32-5.12 23.68h26.56z m-85.12-29.12L832 226.88C832 206.4 817.632 192 800 192h-160v29.76c17.632 0 32 15.36 32 32.96C672 272.64 657.632 288 640 288c-35.168 0-64-29.76-64-66.24V192h-192v29.76c17.632 0 32 15.36 32 32.96C416 272.64 401.632 288 384 288c-35.168 0-64-29.76-64-66.24V192H248.672a32 32 0 0 0-32 29.12L160 861.12c0 20.48 14.432 34.88 32 34.88h551.392c16.608 0 30.4-12.48 32-29.12z m184.32-10.88c0.288 2.56 0.288 5.12 0.288 8 0 52.8-44.768 96-99.488 96H192a96.32 96.32 0 0 1-95.648-104.64l56.64-639.68A95.776 95.776 0 0 1 248.672 128H320c1.28-35.52 29.44-64 64-64s62.72 28.48 64 64h128c1.28-35.52 29.44-64 64-64s62.72 28.48 64 64h96c0.992 0 1.632 0 2.56 0.32 0.672-0.32 0.992-0.32 1.6-0.32 52.192 0 94.752 37.76 99.232 88l56.32 640zM549.856 720a32 32 0 1 1 0 64H416a32 32 0 0 1 0-64h133.856z m51.072-332.128a31.968 31.968 0 1 1 45.248 45.248l-180.992 181.024a32 32 0 0 1-49.504-5.248L357.12 518.4a32 32 0 1 1 53.76-34.752l37.056 57.28 152.96-153.056z" p-id="5089"></path></svg>