<?xml version="1.0" standalone="no"?><!DOCTYPE svg PUBLIC "-//W3C//DTD SVG 1.1//EN" "http://www.w3.org/Graphics/SVG/1.1/DTD/svg11.dtd"><svg t="1609582674837" class="icon" viewBox="0 0 1024 1024" version="1.1" xmlns="http://www.w3.org/2000/svg" p-id="12330" xmlns:xlink="http://www.w3.org/1999/xlink" width="128" height="128"><defs><style type="text/css"></style></defs><path d="M306.642 357.995c18.925-22.051 40.334-41.087 63.68-56.455C357.998 278.775 351 252.705 351 225c0-88.918 72.082-161 161-161s161 72.082 161 161c0 27.508-6.899 53.405-19.06 76.055 25.602 16.74 48.891 37.885 69.148 62.577 30.609-6.256 53.675-33.23 53.91-65.632H777c0-17.673 14.327-32 32-32 17.673 0 32 14.327 32 32 0 0.16-0.001 0.319-0.003 0.478-0.396 54.27-33.665 100.72-80.883 120.428C786.939 468.44 803.586 526.538 806.53 589H865c17.673 0 32 14.327 32 32 0 17.673-14.327 32-32 32h-60.292c-5.791 55.197-22.337 106.41-47.057 150.567 52.177 17.176 89.924 66.127 90.346 123.955L848 928c0 17.673-14.327 32-32 32-17.673 0-32-14.327-32-32h-0.002c-0.266-36.718-29.85-66.464-66.504-66.993C664.477 922.281 592.184 960 512.5 960c-79.687 0-151.982-37.722-205-99-37.113 0-67.23 29.951-67.498 67H240c0 17.673-14.327 32-32 32-17.673 0-32-14.327-32-32 0-0.16 0.001-0.319 0.003-0.478 0.424-58.14 38.578-107.307 91.192-124.23-24.635-44.095-41.124-95.21-46.903-150.292H161c-17.673 0-32-14.327-32-32 0-17.673 14.327-32 32-32h57.47c3.01-63.876 20.352-123.189 48.254-173.445-52.371-17.064-90.298-66.111-90.72-124.077A32.651 32.651 0 0 1 176 291c0-17.673 14.327-32 32-32 17.673 0 32 14.327 32 32h0.002c0.267 36.763 29.923 66.537 66.64 66.995z m289.943-85.48C604.491 258.472 609 242.263 609 225c0-53.572-43.428-97-97-97s-97 43.428-97 97c0 17.384 4.573 33.7 12.582 47.812C454.471 263.177 482.978 258 512.5 258c29.217 0 57.441 5.071 84.085 14.515zM480 881.288V336.712C368.088 355.554 282 470.282 282 609c0 138.717 86.088 253.446 198 272.288z m64-544.741v544.906C656.399 863.128 743 748.13 743 609c0-139.13-86.601-254.128-199-272.453z" p-id="12331"></path></svg>