<?xml version="1.0" standalone="no"?><!DOCTYPE svg PUBLIC "-//W3C//DTD SVG 1.1//EN" "http://www.w3.org/Graphics/SVG/1.1/DTD/svg11.dtd"><svg t="1609579495686" class="icon" viewBox="0 0 1024 1024" version="1.1" xmlns="http://www.w3.org/2000/svg" p-id="10912" xmlns:xlink="http://www.w3.org/1999/xlink" width="128" height="128"><defs><style type="text/css"></style></defs><path d="M838.848 861.376V490.24a31.712 31.712 0 0 0-8.576-21.76L521.408 136.864a31.904 31.904 0 0 0-21.92-8.736h-1.216a32 32 0 0 0-22.272 10.176L168.576 468.48a31.712 31.712 0 0 0-8.576 21.76v371.104a32 32 0 0 0 32 32h614.848a32 32 0 0 0 32-32z m38.24-436.512c16.608 17.824 25.76 41.088 25.76 65.408v371.104c0 52.928-43.072 96-96 96H192c-52.928 0-96-43.072-96-96V490.24c0-24.32 9.152-47.584 25.76-65.408l307.424-330.176a95.36 95.36 0 0 1 66.848-30.496c25.184-1.664 50.08 8.224 68.8 25.696 1.408 1.28 2.912 2.784 4.384 4.288 0.192 0.192 0.352 0.32 0.48 0.512l307.392 330.176z m-377.632 171.36c39.68 0 72-32.32 72-72s-32.32-72-72-72-72 32.32-72 72 32.32 72 72 72z m0-208a136.128 136.128 0 0 1 136 136 136.128 136.128 0 0 1-136 136 136.128 136.128 0 0 1-136-136 136.128 136.128 0 0 1 136-136z m43.392 341.696a32 32 0 1 1 0 64h-88a32 32 0 1 1 0-64h88z" p-id="10913"></path></svg>