<?xml version="1.0" standalone="no"?><!DOCTYPE svg PUBLIC "-//W3C//DTD SVG 1.1//EN" "http://www.w3.org/Graphics/SVG/1.1/DTD/svg11.dtd"><svg t="1609586348942" class="icon" viewBox="0 0 1024 1024" version="1.1" xmlns="http://www.w3.org/2000/svg" p-id="1127" xmlns:xlink="http://www.w3.org/1999/xlink" width="128" height="128"><defs><style type="text/css"></style></defs><path d="M512 0a512 512 0 1 0 512 512A512.581818 512.581818 0 0 0 512 0z m286.813091 175.709091l-114.362182 114.501818a10.123636 10.123636 0 0 0-1.396364 1.629091 276.945455 276.945455 0 0 0-342.10909 0 10.123636 10.123636 0 0 0-1.396364-1.629091L225.186909 175.709091a441.367273 441.367273 0 0 1 573.626182 0zM512 721.454545a209.454545 209.454545 0 1 1 209.454545-209.454545 209.454545 209.454545 0 0 1-209.454545 209.454545zM69.818182 512A439.854545 439.854545 0 0 1 175.825455 225.28l114.338909 114.269091 1.559272 1.396364a277.480727 277.480727 0 0 0 0 342.10909l-1.559272 1.396364-114.338909 114.269091A439.854545 439.854545 0 0 1 69.818182 512z m155.368727 336.290909l114.362182-114.501818a10.123636 10.123636 0 0 0 1.396364-1.629091 276.945455 276.945455 0 0 0 342.10909 0 10.123636 10.123636 0 0 0 1.396364 1.629091l114.362182 114.501818a441.367273 441.367273 0 0 1-573.626182 0z m622.987636-49.570909l-114.338909-114.269091-1.559272-1.396364a277.480727 277.480727 0 0 0 0-342.10909l1.559272-1.396364 114.338909-114.269091a440.762182 440.762182 0 0 1 0 573.44z" p-id="1128"></path></svg>