<?xml version="1.0" standalone="no"?><!DOCTYPE svg PUBLIC "-//W3C//DTD SVG 1.1//EN" "http://www.w3.org/Graphics/SVG/1.1/DTD/svg11.dtd"><svg t="1609688550717" class="icon" viewBox="0 0 1024 1024" version="1.1" xmlns="http://www.w3.org/2000/svg" p-id="9522" xmlns:xlink="http://www.w3.org/1999/xlink" width="128" height="128"><defs><style type="text/css"></style></defs><path d="M802.133333 273.066667H853.333333v17.066666c0 10.24 6.826667 17.066667 17.066667 17.066667s17.066667-6.826667 17.066667-17.066667v-34.133333c0-10.24-6.826667-17.066667-17.066667-17.066667h-47.786667l30.72-116.053333c3.413333-10.24-3.413333-17.066667-13.653333-20.48-10.24-3.413333-17.066667 3.413333-20.48 13.653333l-34.133333 136.533334c0 3.413333 0 10.24 3.413333 13.653333 3.413333 3.413333 6.826667 6.826667 13.653333 6.826667zM863.573333 648.533333c-51.2 0-119.466667-17.066667-163.84-30.72-20.48-6.826667-47.786667 0-58.026666 13.653334l-95.573334 68.266666c-109.226667-58.026667-177.493333-126.293333-235.52-232.106666l81.92-85.333334c17.066667-17.066667 20.48-37.546667 13.653334-61.44-20.48-64.853333-30.72-116.053333-30.72-157.013333 0-34.133333-27.306667-58.026667-61.44-58.026667H163.84C129.706667 102.4 102.4 129.706667 102.4 163.84 102.4 573.44 450.56 921.6 863.573333 921.6c34.133333 0 61.44-27.306667 61.44-61.44v-153.6c-3.413333-30.72-30.72-58.026667-61.44-58.026667zM658.773333 146.773333c6.826667-6.826667 13.653333-10.24 23.893334-10.24 20.48 0 34.133333 13.653333 34.133333 34.133334 0 17.066667-6.826667 30.72-20.48 44.373333l-75.093333 64.853333c-6.826667 3.413333-6.826667 10.24-6.826667 17.066667 3.413333 6.826667 10.24 10.24 17.066667 10.24h102.4c10.24 0 17.066667-6.826667 17.066666-17.066667s-6.826667-17.066667-17.066666-17.066666h-54.613334l40.96-34.133334c20.48-17.066667 30.72-40.96 30.72-68.266666 0-37.546667-30.72-68.266667-68.266666-68.266667-17.066667 0-34.133333 6.826667-47.786667 20.48-13.653333 10.24-20.48 27.306667-20.48 47.786667h34.133333c0-10.24 3.413333-17.066667 10.24-23.893334z" fill="" p-id="9523"></path></svg>