<?xml version="1.0" standalone="no"?><!DOCTYPE svg PUBLIC "-//W3C//DTD SVG 1.1//EN" "http://www.w3.org/Graphics/SVG/1.1/DTD/svg11.dtd"><svg t="1609582285747" class="icon" viewBox="0 0 1024 1024" version="1.1" xmlns="http://www.w3.org/2000/svg" p-id="4233" xmlns:xlink="http://www.w3.org/1999/xlink" width="128" height="128"><defs><style type="text/css"></style></defs><path d="M458.666667 917.333333h-256C149.333333 917.333333 106.666667 874.666667 106.666667 821.333333v-618.666666C106.666667 149.333333 149.333333 106.666667 202.666667 106.666667h618.666666C874.666667 106.666667 917.333333 149.333333 917.333333 202.666667v256c0 17.066667-14.933333 32-32 32s-32-14.933333-32-32v-256c0-17.066667-14.933333-32-32-32h-618.666666C185.6 170.666667 170.666667 185.6 170.666667 202.666667v618.666666c0 17.066667 14.933333 32 32 32h256c17.066667 0 32 14.933333 32 32s-14.933333 32-32 32z" p-id="4234"></path><path d="M629.333333 490.666667h-341.333333c-17.066667 0-32-14.933333-32-32s14.933333-32 32-32h341.333333c17.066667 0 32 14.933333 32 32s-14.933333 32-32 32zM736 341.333333h-448c-17.066667 0-32-14.933333-32-32s14.933333-32 32-32h448c17.066667 0 32 14.933333 32 32s-14.933333 32-32 32zM840.533333 917.333333H610.133333c-21.333333 0-38.4-14.933333-40.533333-36.266666L533.333333 618.666667c-2.133333-10.666667 4.266667-21.333333 14.933334-27.733334 10.666667-4.266667 21.333333-4.266667 29.866666 4.266667l72.533334 66.133333 51.2-113.066666c4.266667-8.533333 12.8-14.933333 23.466666-14.933334s19.2 6.4 23.466667 14.933334l51.2 113.066666 72.533333-66.133333c8.533333-8.533333 19.2-8.533333 29.866667-4.266667 10.666667 4.266667 14.933333 17.066667 14.933333 27.733334l-34.133333 262.4c-4.266667 21.333333-21.333333 36.266667-42.666667 36.266666zM582.4 657.066667L610.133333 874.666667h228.266667l29.866667-217.6-49.066667 46.933333c-6.4 6.4-17.066667 10.666667-27.733333 8.533333-10.666667-2.133333-17.066667-8.533333-21.333334-17.066666L725.333333 599.466667l-44.8 96c-4.266667 8.533333-12.8 14.933333-21.333333 17.066666-10.666667 2.133333-19.2 0-27.733333-8.533333l-49.066667-46.933333z" p-id="4235"></path><path d="M768 853.333333h-85.333333c-12.8 0-21.333333-8.533333-21.333334-21.333333s8.533333-21.333333 21.333334-21.333333h85.333333c12.8 0 21.333333 8.533333 21.333333 21.333333s-8.533333 21.333333-21.333333 21.333333z" p-id="4236"></path></svg>