<?xml version="1.0" standalone="no"?><!DOCTYPE svg PUBLIC "-//W3C//DTD SVG 1.1//EN" "http://www.w3.org/Graphics/SVG/1.1/DTD/svg11.dtd"><svg t="1609688760262" class="icon" viewBox="0 0 1024 1024" version="1.1" xmlns="http://www.w3.org/2000/svg" p-id="9665" xmlns:xlink="http://www.w3.org/1999/xlink" width="128" height="128"><defs><style type="text/css"></style></defs><path d="M224.341333 236.885333c-19.285333 0-31.488 15.018667-29.994666 29.738667 29.44 297.173333 265.856 533.589333 563.029333 563.029333 14.72 1.493333 29.738667-10.709333 29.738667-29.994666V681.813333a33.066667 33.066667 0 0 0-22.613334-31.402666l-114.56-38.186667a33.152 33.152 0 0 0-33.877333 7.978667l-18.346667 18.346666a65.536 65.536 0 0 1-83.328 8.021334c-62.634667-42.837333-99.072-79.061333-137.941333-137.6a65.365333 65.365333 0 0 1 8.533333-82.346667l18.773334-18.773333a33.066667 33.066667 0 0 0 7.978666-33.834667l-38.186666-114.56a33.066667 33.066667 0 0 0-31.402667-22.613333H224.426667z m-95.872 36.266667C122.709333 215.125333 170.496 170.666667 224.341333 170.666667H342.186667c42.752 0 80.682667 27.306667 94.208 67.882666l38.186666 114.56a99.285333 99.285333 0 0 1-23.978666 101.632l-18.432 18.432c33.408 50.176 63.488 80.298667 119.04 118.4l18.090666-18.133333a99.285333 99.285333 0 0 1 101.632-23.978667l114.56 38.186667A99.242667 99.242667 0 0 1 853.333333 681.856v117.76c0 53.888-44.416 101.674667-102.485333 95.914667-328.533333-32.554667-589.824-293.802667-622.378667-622.378667z m460.032-69.376c0-18.261333 14.805333-33.109333 33.109334-33.109333C749.610667 170.666667 853.333333 274.432 853.333333 402.389333a33.109333 33.109333 0 0 1-66.218666 0 165.546667 165.546667 0 0 0-165.546667-165.546666 33.109333 33.109333 0 0 1-33.066667-33.066667z m0 132.394667c0-18.261333 14.805333-33.066667 33.109334-33.066667a99.328 99.328 0 0 1 99.285333 99.285333 33.109333 33.109333 0 0 1-66.176 0 33.109333 33.109333 0 0 0-33.109333-33.109333 33.109333 33.109333 0 0 1-33.109334-33.109333z" fill="#000000" p-id="9666"></path></svg>