<?xml version="1.0" standalone="no"?><!DOCTYPE svg PUBLIC "-//W3C//DTD SVG 1.1//EN" "http://www.w3.org/Graphics/SVG/1.1/DTD/svg11.dtd"><svg t="1609586380855" class="icon" viewBox="0 0 1024 1024" version="1.1" xmlns="http://www.w3.org/2000/svg" p-id="752" xmlns:xlink="http://www.w3.org/1999/xlink" width="128" height="128"><defs><style type="text/css"></style></defs><path d="M858.181818 0C885.504 0 907.636364 21.876364 907.636364 48.872727v733.090909c0 107.985455-88.576 195.490909-197.818182 195.490909H165.818182C138.496 977.454545 116.363636 955.578182 116.363636 928.581818V48.872727C116.363636 21.876364 138.496 0 165.818182 0h692.363636z m-24.738909 73.309091H190.580364v830.836364H709.818182c68.282182 0 123.648-54.690909 123.648-122.181819V73.309091z m-519.214545 583.005091h395.52c19.316364 0 34.978909 14.592 34.978909 32.581818 0 16.919273-13.870545 30.836364-31.604364 32.418909l-3.374545 0.139636H314.251636c-19.316364 0-34.978909-14.592-34.978909-32.581818 0-16.919273 13.870545-30.836364 31.604364-32.395636l3.374545-0.162909h395.496728z m395.52-173.684364c19.316364 0 34.978909 14.592 34.978909 32.581818 0 16.919273-13.870545 30.836364-31.604364 32.395637l-3.374545 0.162909H314.251636c-19.316364 0-34.978909-14.592-34.978909-32.581818 0-16.919273 13.870545-30.836364 31.604364-32.418909l3.374545-0.139637h395.496728z m0-180.084363c19.316364 0 34.978909 14.592 34.978909 32.581818 0 16.919273-13.870545 30.836364-31.604364 32.395636l-3.374545 0.162909H314.251636c-19.316364 0-34.978909-14.592-34.978909-32.581818 0-16.919273 13.870545-30.836364 31.604364-32.418909l3.374545-0.139636h395.496728z" p-id="753"></path></svg>