<?xml version="1.0" encoding="UTF-8"?>
<svg width="30px" height="24px" viewBox="0 0 30 24" version="1.1" xmlns="http://www.w3.org/2000/svg" xmlns:xlink="http://www.w3.org/1999/xlink">
    <title>Scan QR</title>
    <defs>
        <filter id="filter-1">
            <feColorMatrix in="SourceGraphic" type="matrix" values="0 0 0 0 0.701961 0 0 0 0 0.156863 0 0 0 0 0.176471 0 0 0 1.000000 0"></feColorMatrix>
        </filter>
        <filter id="filter-2">
            <feColorMatrix in="SourceGraphic" type="matrix" values="0 0 0 0 1.000000 0 0 0 0 1.000000 0 0 0 0 1.000000 0 0 0 1.000000 0"></feColorMatrix>
        </filter>
    </defs>
    <g id="Account-V3" stroke="none" stroke-width="1" fill="none" fill-rule="evenodd">
        <g id="ACCO---Registered" transform="translate(-290.000000, -180.000000)">
            <g id="Scan-QR" transform="translate(254.000000, 165.000000)" filter="url(#filter-1)">
                <g transform="translate(36.360000, 15.000000)" filter="url(#filter-2)" id="qr-code-(2)">
                    <g>
                        <path d="M3.14222222,4.86111111 L3.14222222,3.5 C3.14222222,1.99655818 4.37319043,0.777777778 5.89166667,0.777777778 L8.64111111,0.777777778" id="Path" stroke="#333333" stroke-width="1.5" stroke-linecap="round" stroke-linejoin="round"></path>
                        <path d="M3.14222222,18.4722222 L3.14222222,19.8333333 C3.14222222,21.3367752 4.37319043,22.5555556 5.89166667,22.5555556 L8.64111111,22.5555556" id="Path" stroke="#333333" stroke-width="1.5" stroke-linecap="round" stroke-linejoin="round"></path>
                        <path d="M19.6388889,0.777777778 L22.3883333,0.777777778 C23.9068096,0.777777778 25.1377778,1.99655818 25.1377778,3.5 L25.1377778,4.86111111" id="Path" stroke="#333333" stroke-width="1.5" stroke-linecap="round" stroke-linejoin="round"></path>
                        <path d="M19.6388889,22.5555556 L22.3883333,22.5555556 C23.9068096,22.5555556 25.1377778,21.3367752 25.1377778,19.8333333 L25.1377778,18.4722222" id="Path" stroke="#333333" stroke-width="1.5" stroke-linecap="round" stroke-linejoin="round"></path>
                        <line x1="0.981944444" y1="11.6666667" x2="4.90972222" y2="11.6666667" id="Path" stroke="#333333" stroke-width="1.5" stroke-linecap="round" stroke-linejoin="round"></line>
                        <line x1="23.3702778" y1="11.6666667" x2="27.2980556" y2="11.6666667" id="Path-Copy" stroke="#333333" stroke-width="1.5" stroke-linecap="round" stroke-linejoin="round"></line>
                        <path d="M11.5716016,11.0104167 L8.09183594,11.0104167 C7.04111242,11.0104167 6.18625,10.1640182 6.18625,9.12369792 L6.18625,5.67838542 C6.18625,4.6380651 7.04111242,3.79166667 8.09183594,3.79166667 L11.5716016,3.79166667 C12.6223251,3.79166667 13.4771875,4.6380651 13.4771875,5.67838542 L13.4771875,9.12369792 C13.4771875,10.1640182 12.6223251,11.0104167 11.5716016,11.0104167 Z M8.09183594,5.10416667 C7.77202891,5.10416667 7.511875,5.36174479 7.511875,5.67838542 L7.511875,9.12369792 C7.511875,9.44033854 7.77202891,9.69791667 8.09183594,9.69791667 L11.5716016,9.69791667 C11.8914086,9.69791667 12.1515625,9.44033854 12.1515625,9.12369792 L12.1515625,5.67838542 C12.1515625,5.36174479 11.8914086,5.10416667 11.5716016,5.10416667 L8.09183594,5.10416667 Z" id="Shape" fill="#000000" fill-rule="nonzero"></path>
                        <path d="M11.5716016,19.5416667 L8.09183594,19.5416667 C7.04111242,19.5416667 6.18625,18.6952682 6.18625,17.6549479 L6.18625,14.2096354 C6.18625,13.1693151 7.04111242,12.3229167 8.09183594,12.3229167 L11.5716016,12.3229167 C12.6223251,12.3229167 13.4771875,13.1693151 13.4771875,14.2096354 L13.4771875,17.6549479 C13.4771875,18.6952682 12.6223251,19.5416667 11.5716016,19.5416667 Z M8.09183594,13.6354167 C7.77202891,13.6354167 7.511875,13.8929948 7.511875,14.2096354 L7.511875,17.6549479 C7.511875,17.9715885 7.77202891,18.2291667 8.09183594,18.2291667 L11.5716016,18.2291667 C11.8914086,18.2291667 12.1515625,17.9715885 12.1515625,17.6549479 L12.1515625,14.2096354 C12.1515625,13.8929948 11.8914086,13.6354167 11.5716016,13.6354167 L8.09183594,13.6354167 Z" id="Shape" fill="#000000" fill-rule="nonzero"></path>
                        <path d="M20.1881641,11.0104167 L16.7083984,11.0104167 C15.6576749,11.0104167 14.8028125,10.1640182 14.8028125,9.12369792 L14.8028125,5.67838542 C14.8028125,4.6380651 15.6576749,3.79166667 16.7083984,3.79166667 L20.1881641,3.79166667 C21.2388876,3.79166667 22.09375,4.6380651 22.09375,5.67838542 L22.09375,9.12369792 C22.09375,10.1640182 21.2388876,11.0104167 20.1881641,11.0104167 Z M16.7083984,5.10416667 C16.3885914,5.10416667 16.1284375,5.36174479 16.1284375,5.67838542 L16.1284375,9.12369792 C16.1284375,9.44033854 16.3885914,9.69791667 16.7083984,9.69791667 L20.1881641,9.69791667 C20.5079711,9.69791667 20.768125,9.44033854 20.768125,9.12369792 L20.768125,5.67838542 C20.768125,5.36174479 20.5079711,5.10416667 20.1881641,5.10416667 L16.7083984,5.10416667 Z" id="Shape" fill="#000000" fill-rule="nonzero"></path>
                        <path d="M21.0166797,15.6041667 L19.4425,15.6041667 L19.4425,13.3893229 C19.4425,12.8013229 18.9593511,12.3229167 18.3654297,12.3229167 L15.8798828,12.3229167 C15.2859614,12.3229167 14.8028125,12.8013229 14.8028125,13.3893229 L14.8028125,15.8502604 C14.8028125,16.4382604 15.2859614,16.9166667 15.8798828,16.9166667 L18.116875,16.9166667 L18.116875,18.4752604 C18.116875,19.0632604 18.6000239,19.5416667 19.1939453,19.5416667 L21.0166797,19.5416667 C21.6106011,19.5416667 22.09375,19.0632604 22.09375,18.4752604 L22.09375,16.6705729 C22.09375,16.0825729 21.6106011,15.6041667 21.0166797,15.6041667 Z M16.1284375,13.6354167 L18.116875,13.6354167 L18.116875,15.6041667 L16.1284375,15.6041667 L16.1284375,13.6354167 Z M20.768125,18.2291667 L19.4425,18.2291667 L19.4425,16.9166667 L20.768125,16.9166667 L20.768125,18.2291667 Z" id="Shape" fill="#000000" fill-rule="nonzero"></path>
                        <path d="M10.163125,8.38541667 L9.5003125,8.38541667 C9.13423287,8.38541667 8.8375,8.09158073 8.8375,7.72916667 L8.8375,7.07291667 C8.8375,6.7105026 9.13423287,6.41666667 9.5003125,6.41666667 L10.163125,6.41666667 C10.5292046,6.41666667 10.8259375,6.7105026 10.8259375,7.07291667 L10.8259375,7.72916667 C10.8259375,8.09158073 10.5292046,8.38541667 10.163125,8.38541667 Z" id="Path" fill="#000000" fill-rule="nonzero"></path>
                        <path d="M18.7796875,8.38541667 L18.116875,8.38541667 C17.7507954,8.38541667 17.4540625,8.09158073 17.4540625,7.72916667 L17.4540625,7.07291667 C17.4540625,6.7105026 17.7507954,6.41666667 18.116875,6.41666667 L18.7796875,6.41666667 C19.1457671,6.41666667 19.4425,6.7105026 19.4425,7.07291667 L19.4425,7.72916667 C19.4425,8.09158073 19.1457671,8.38541667 18.7796875,8.38541667 Z" id="Path" fill="#000000" fill-rule="nonzero"></path>
                        <path d="M10.163125,16.9166667 L9.5003125,16.9166667 C9.13423287,16.9166667 8.8375,16.6228307 8.8375,16.2604167 L8.8375,15.6041667 C8.8375,15.2417526 9.13423287,14.9479167 9.5003125,14.9479167 L10.163125,14.9479167 C10.5292046,14.9479167 10.8259375,15.2417526 10.8259375,15.6041667 L10.8259375,16.2604167 C10.8259375,16.6228307 10.5292046,16.9166667 10.163125,16.9166667 Z" id="Path" fill="#000000" fill-rule="nonzero"></path>
                    </g>
                </g>
            </g>
        </g>
    </g>
</svg>