<?xml version="1.0" encoding="UTF-8"?>
<svg width="36px" height="36px" viewBox="0 0 36 36" version="1.1" xmlns="http://www.w3.org/2000/svg" xmlns:xlink="http://www.w3.org/1999/xlink">
    <title>Group</title>
    <defs>
        <filter id="filter-1">
            <feColorMatrix in="SourceGraphic" type="matrix" values="0 0 0 0 0.737255 0 0 0 0 0.584314 0 0 0 0 0.360784 0 0 0 1.000000 0"></feColorMatrix>
        </filter>
    </defs>
    <g id="Account-V3" stroke="none" stroke-width="1" fill="none" fill-rule="evenodd">
        <g id="ACCO---Referral-Code" transform="translate(-16.000000, -561.000000)">
            <g id="How-it-works" transform="translate(0.000000, 413.000000)">
                <g id="Group" transform="translate(0.000000, 134.000000)" filter="url(#filter-1)">
                    <g transform="translate(16.000000, 14.000000)">
                        <polygon id="Path" points="0 0 36 0 36 36 0 36"></polygon>
                        <path d="M21,12 L21,9 C21,7.34314575 19.6568542,6 18,6 L7.5,6 C5.84314575,6 4.5,7.34314575 4.5,9 L4.5,27 C4.5,28.6568542 5.84314575,30 7.5,30 L18,30 C19.6568542,30 21,28.6568542 21,27 L21,24" id="Path" stroke="#333333" stroke-width="1.5" stroke-linecap="round" stroke-linejoin="round"></path>
                        <path d="M30,18 L10.5,18 L15,13.5 M15,22.5 L10.5,18" id="Shape" stroke="#333333" stroke-width="1.5" stroke-linecap="round" stroke-linejoin="round"></path>
                    </g>
                </g>
            </g>
        </g>
    </g>
</svg>