<?xml version="1.0" standalone="no"?><!DOCTYPE svg PUBLIC "-//W3C//DTD SVG 1.1//EN" "http://www.w3.org/Graphics/SVG/1.1/DTD/svg11.dtd"><svg t="1609578307210" class="icon" viewBox="0 0 1024 1024" version="1.1" xmlns="http://www.w3.org/2000/svg" p-id="5490" xmlns:xlink="http://www.w3.org/1999/xlink" width="128" height="128"><defs><style type="text/css"></style></defs><path d="M979.43552 348.16s-69.12-135.68-112.64-207.36S782.31552 81.92 782.31552 81.92H245.76s-40.96-12.8-84.48 58.88S48.64 348.16 48.64 348.16 0.64512 494.08 148.48 540.16c100.864 31.42656 175.49312-51.24096 205.17888-96.23552C376.40192 509.58336 438.60992 556.8 512 556.8c0.68608 0 1.36192-0.1024 2.03776-0.1024s1.35168 0.1024 2.03776 0.1024c72.704 0 134.43072-46.35648 157.66528-111.07328 30.96576 45.3632 106.3424 125.45024 205.85472 94.43328 147.84512-46.08 99.84-192 99.84-192zM858.2656 471.72608a77.12768 77.12768 0 0 1-23.25504 3.70688c-51.57888 0-94.08512-58.4192-102.07232-70.13376l-38.06208-56.0128c0.08192 0.23552 0.13312 0.5632 0.21504 0.8192A35.328 35.328 0 0 0 662.00576 327.68c-19.56864 0-32.41984 18.51392-35.77856 38.83008l-19.93728 54.9888c-13.44512 37.41696-48.72192 62.7712-88.20736 63.60064l-6.68672-0.08192-1.2288 0.08192a95.98976 95.98976 0 0 1-88.76032-64.63488l-20.89984-60.37504v0.01024c0 0.3584-0.1024 0.68608-0.12288 1.05472C399.77984 342.59968 383.91808 327.68 364.30848 327.68c-14.76608 0-27.43296 8.47872-33.06496 20.60288 0.03072-0.07168 0.03072-0.16384 0.0512-0.21504l-37.45792 56.38144c-7.82336 11.85792-49.4592 71.00416-100.87424 71.00416a77.38368 77.38368 0 0 1-23.17312-3.70688c-37.33504-11.65312-46.42816-29.2864-49.41824-35.09248-11.7248-22.784-6.77888-52.2752-4.53632-62.45376 14.1824-27.61728 70.4-136.36608 106.71104-196.18816 8.88832-14.6432 15.83104-21.47328 19.47648-24.40192h544.02048c3.64544 2.92864 10.58816 9.75872 19.47648 24.40192 36.61824 60.32384 93.37856 170.21952 107.01824 196.80256 7.70048 29.06112 9.08288 77.16864-54.272 96.91136zM890.88 642.56a35.84 35.84 0 0 0-71.68 0c0 0.88064 0.2048 1.69984 0.256 2.56H819.2v194.56c0 16.93696-13.78304 30.72-30.72 30.72H235.52c-16.93696 0-30.72-13.78304-30.72-30.72V645.12h-0.256c0.0512-0.86016 0.256-1.67936 0.256-2.56a35.84 35.84 0 0 0-71.68 0c0 0.88064 0.2048 1.69984 0.256 2.56H133.12v194.56c0 56.54528 45.84448 102.4 102.4 102.4h552.96c56.54528 0 102.4-45.85472 102.4-102.4V645.12h-0.256c0.0512-0.86016 0.256-1.67936 0.256-2.56z" fill="#1A1A1A" p-id="5491"></path><path d="M716.8 240.64a35.84 35.84 0 0 1-35.84 35.84h-337.92a35.82976 35.82976 0 0 1-35.84-35.84c0-19.80416 16.03584-35.84 35.84-35.84h337.92a35.84 35.84 0 0 1 35.84 35.84z" fill="#1A1A1A" p-id="5492"></path></svg>